<?xml version="1.0" encoding="utf-8"?>
<!-- Generator: Adobe Illustrator 17.0.0, SVG Export Plug-In . SVG Version: 6.00 Build 0)  -->
<!DOCTYPE svg PUBLIC "-//W3C//DTD SVG 1.1//EN" "http://www.w3.org/Graphics/SVG/1.1/DTD/svg11.dtd">
<svg version="1.1" id="Layer_1" xmlns="http://www.w3.org/2000/svg" xmlns:xlink="http://www.w3.org/1999/xlink" x="0px" y="0px"
	 width="37.6px" height="63px" viewBox="0 0 37.6 63" enable-background="new 0 0 37.6 63" xml:space="preserve">
<g>
	<rect x="-0.074" fill="#ED1C24" width="37.599" height="63"/>
	<g>
		<polygon fill="#FFFFFF" points="21.281,8.997 28.525,8.997 28.525,26.277 		"/>
		<polygon fill="#FFFFFF" points="16.176,8.997 8.925,8.997 8.925,26.277 		"/>
		<polygon fill="#FFFFFF" points="18.727,15.364 23.344,26.276 20.319,26.276 18.936,22.801 15.556,22.801 		"/>
		<path fill="#FFFFFF" d="M11.556,33.501l-0.229-1.355c-0.067-0.393-0.149-1.003-0.21-1.425h-0.023
			c-0.069,0.424-0.163,1.053-0.232,1.428l-0.247,1.353H11.556z M10.491,34.386l-0.298,1.504H9.088l1.377-6.26h1.352l1.25,6.26h-1.11
			l-0.292-1.504H10.491z"/>
		<path fill="#FFFFFF" d="M15.577,33.093c0-0.082,0-0.181-0.017-0.271c-0.043-0.308-0.21-0.588-0.475-0.588
			c-0.45,0-0.619,0.654-0.619,1.418c0,0.88,0.24,1.382,0.603,1.382c0.17,0,0.364-0.087,0.47-0.455
			c0.024-0.072,0.038-0.173,0.038-0.288V33.093z M16.712,29.462v5.13c0,0.409,0.02,0.907,0.037,1.299h-0.98l-0.065-0.522h-0.023
			c-0.164,0.321-0.522,0.598-0.947,0.598c-0.937,0-1.402-1.031-1.402-2.333c0-1.584,0.695-2.353,1.447-2.353
			c0.392,0,0.651,0.191,0.779,0.469h0.019v-2.286H16.712z"/>
		<path fill="#FFFFFF" d="M19.069,35.099c0.431,0,0.541-0.811,0.541-1.485c0-0.638-0.11-1.47-0.56-1.47
			c-0.479,0-0.58,0.832-0.58,1.47c0,0.772,0.128,1.485,0.589,1.485H19.069z M19.047,35.966c-1.04,0-1.697-0.838-1.697-2.333
			c0-1.631,0.842-2.354,1.722-2.354c1.033,0,1.679,0.876,1.679,2.33c0,1.867-1.012,2.357-1.694,2.357H19.047z"/>
		<path fill="#FFFFFF" d="M22.516,34.271c0,0.112,0.019,0.219,0.043,0.288c0.114,0.382,0.309,0.476,0.461,0.476
			c0.438,0,0.617-0.553,0.617-1.439c0-0.804-0.19-1.36-0.622-1.36c-0.215,0-0.396,0.233-0.458,0.483
			c-0.021,0.078-0.041,0.2-0.041,0.287V34.271z M21.384,29.462h1.132v2.363h0.018c0.224-0.348,0.521-0.547,0.953-0.547
			c0.854,0,1.283,0.968,1.283,2.228c0,1.602-0.642,2.459-1.469,2.459c-0.399,0-0.661-0.176-0.899-0.619h-0.023l-0.063,0.543h-0.971
			c0.016-0.378,0.038-0.889,0.038-1.298V29.462z"/>
		<path fill="#FFFFFF" d="M27.483,33.19c0.004-0.639-0.18-1.088-0.541-1.088c-0.412,0-0.586,0.603-0.598,1.088H27.483z
			 M26.339,33.986c0.013,0.821,0.446,1.089,0.984,1.089c0.343,0,0.635-0.074,0.851-0.158l0.155,0.812
			c-0.302,0.13-0.767,0.21-1.212,0.21c-1.217,0-1.878-0.825-1.878-2.239c0-1.519,0.768-2.427,1.774-2.427
			c0.973,0,1.512,0.803,1.512,2.12c0,0.299-0.014,0.467-0.035,0.601L26.339,33.986z"/>
	</g>
</g>
<g>
</g>
<g>
</g>
<g>
</g>
<g>
</g>
<g>
</g>
<g>
</g>
</svg>
