<?xml version="1.0" encoding="utf-8"?>
<!-- Generator: Adobe Illustrator 17.0.0, SVG Export Plug-In . SVG Version: 6.00 Build 0)  -->
<!DOCTYPE svg PUBLIC "-//W3C//DTD SVG 1.1//EN" "http://www.w3.org/Graphics/SVG/1.1/DTD/svg11.dtd">
<svg version="1.1" id="Calque_1" xmlns="http://www.w3.org/2000/svg" xmlns:xlink="http://www.w3.org/1999/xlink" x="0px" y="0px"
	 width="288.817px" height="288.816px" viewBox="0 0 288.817 288.816" enable-background="new 0 0 288.817 288.816"
	 xml:space="preserve">
<path fill="#060A14" d="M288.817,144.409c0,79.753-64.657,144.407-144.408,144.407C64.653,288.816,0,224.163,0,144.409
	C0,64.653,64.653,0,144.409,0C224.16,0,288.817,64.653,288.817,144.409z"/>
<g>
	<path fill="#FFFFFF" d="M122.112,73.086v108.077h-13.907V73.086H88.134V197.38c0,2.07,1.68,3.744,3.749,3.744h46.549
		c2.068,0,3.744-1.674,3.744-3.744V73.086H122.112z"/>
	<path fill="#FFFFFF" d="M167.412,201.125V93.052h13.901v108.073h20.066V76.832c0-2.07-1.676-3.746-3.747-3.746h-46.546
		c-2.07,0-3.746,1.676-3.746,3.746v124.293H167.412z"/>
	<path fill="#FFFFFF" d="M90.93,216.894l0.057-0.284l0.023-0.273c0-0.441-0.13-0.715-0.396-0.814
		c-0.262-0.09-0.752-0.144-1.476-0.144v-0.433l2.302-0.448l2.486-0.464l0.142,0.072l0.047,0.187l-0.047,0.253l-3.004,10.446
		c-0.071,0.254-0.124,0.461-0.155,0.602l-0.047,0.311c0,0.237,0.067,0.421,0.202,0.554c0.13,0.136,0.309,0.206,0.529,0.206
		c0.616,0,1.386-0.54,2.306-1.629c0.925-1.079,1.748-2.206,2.464-3.371c0.648-1.044,1.243-2.204,1.787-3.485
		c0.333-0.792,0.813-2.056,1.438-3.788h2.332l-3.038,10.968c-0.053,0.212-0.097,0.399-0.141,0.577
		c-0.038,0.176-0.058,0.318-0.058,0.429l0.092,0.348l0.321,0.15c0.152,0,0.31-0.065,0.469-0.18c0.161-0.12,0.363-0.307,0.604-0.548
		c0.11-0.112,0.313-0.361,0.609-0.726c0.177-0.224,0.453-0.573,0.827-1.038l0.44,0.299c-0.47,0.783-0.957,1.454-1.473,2.024
		c-1.01,1.129-1.949,1.7-2.818,1.7c-0.447,0-0.817-0.123-1.106-0.372c-0.285-0.243-0.427-0.634-0.427-1.153
		c0-0.271,0.027-0.56,0.078-0.878c0.052-0.316,0.136-0.673,0.246-1.079c0.192-0.723,0.437-1.623,0.739-2.706l0.403-1.46l-0.11,0.006
		c-1.441,2.402-2.575,4.104-3.391,5.105c-1.429,1.713-2.775,2.571-4.049,2.571c-0.343,0-0.655-0.077-0.941-0.217
		c-0.537-0.293-0.81-0.81-0.81-1.546c0-0.221,0.01-0.393,0.034-0.529c0.021-0.137,0.055-0.317,0.109-0.56L90.93,216.894z"/>
	<path fill="#FFFFFF" d="M108.896,209.299l0.079-0.396l0.017-0.325c0-0.353-0.146-0.561-0.424-0.643
		c-0.279-0.079-0.845-0.115-1.685-0.102v-0.509c0.467-0.06,1.009-0.135,1.609-0.219c0.61-0.08,1.006-0.136,1.19-0.167
		c0.579-0.104,1.288-0.259,2.115-0.463l0.217,0.154l-5.147,18.582c-0.115,0.44-0.181,0.708-0.201,0.802l-0.027,0.278
		c0,0.199,0.034,0.366,0.11,0.503c0.071,0.137,0.201,0.212,0.4,0.212c0.369,0,0.853-0.335,1.452-0.994
		c0.598-0.658,1.102-1.298,1.514-1.912l0.417,0.287c-0.887,1.315-1.583,2.221-2.077,2.724c-0.856,0.855-1.723,1.284-2.586,1.284
		c-0.373,0-0.703-0.092-0.992-0.278c-0.446-0.28-0.666-0.751-0.666-1.422c0-0.263,0.039-0.603,0.122-1.038
		c0.057-0.254,0.127-0.56,0.217-0.895L108.896,209.299z"/>
	<path fill="#FFFFFF" d="M112.906,226.75l0.06-0.337l2.986-10.785h-2.349c0-0.281,0.02-0.456,0.06-0.527
		c0.045-0.068,0.149-0.144,0.313-0.217c1.049-0.449,1.858-0.876,2.432-1.287c0.579-0.414,1.362-1.211,2.359-2.391l0.246-0.293
		l0.117-0.105l0.146-0.037l0.215,0.062l0.057,0.194l-0.006,0.179l-0.911,3.364h2.548l-0.185,1.058h-2.666l-2.849,10.384
		c-0.054,0.186-0.037,0.364,0.044,0.532c0.084,0.175,0.223,0.254,0.42,0.254c0.269,0,0.643-0.266,1.129-0.799
		c0.276-0.291,0.749-0.865,1.409-1.715l0.403,0.233l-0.219,0.32c-0.886,1.331-1.67,2.255-2.349,2.777
		c-0.676,0.521-1.314,0.781-1.926,0.781c-0.527,0-0.907-0.142-1.146-0.422c-0.237-0.278-0.356-0.59-0.356-0.936L112.906,226.75z"/>
	<path fill="#FFFFFF" d="M127.156,214.068l0.054,0.199l-0.027,0.234l-1.576,6.024l0.36-0.712c0.743-1.454,1.608-2.774,2.603-3.974
		c0.992-1.207,1.936-1.807,2.829-1.807c0.489,0,0.862,0.159,1.119,0.475c0.269,0.324,0.4,0.691,0.4,1.101
		c0,0.464-0.131,0.845-0.393,1.148c-0.264,0.311-0.627,0.46-1.087,0.46c-0.323,0-0.565-0.062-0.723-0.185
		c-0.173-0.124-0.296-0.268-0.387-0.434l-0.186-0.336l-0.151-0.15l-0.206-0.057c-0.403,0-0.983,0.566-1.743,1.691
		c-0.757,1.116-1.435,2.333-2.03,3.644c-0.366,0.796-0.766,1.846-1.212,3.157c-0.28,0.827-0.653,1.993-1.119,3.506h-2.373
		l2.573-9.302c0.149-0.54,0.263-1.017,0.35-1.442c0.087-0.421,0.132-0.77,0.132-1.035c0-0.311-0.079-0.54-0.232-0.708
		c-0.15-0.169-0.42-0.251-0.804-0.251c-0.123,0-0.279,0.014-0.463,0.032c-0.186,0.018-0.406,0.044-0.666,0.077v-0.511l0.619-0.124
		c0.803-0.171,1.683-0.344,2.637-0.522c0.956-0.186,1.456-0.278,1.505-0.278L127.156,214.068z"/>
	<path fill="#FFFFFF" d="M144.43,214.666c0.239,0.229,0.425,0.527,0.559,0.9l0.083,0.217l0.346-1.169l0.108-0.267l0.222-0.086
		l1.781-0.199l0.162,0.055l-0.003,0.194l-0.102,0.317l-0.101,0.328l-1.529,5.532c-0.328,1.207-0.611,2.248-0.847,3.124
		c-0.38,1.578-0.574,2.486-0.574,2.708l0.121,0.317l0.283,0.1l0.312-0.095c0.11-0.06,0.251-0.154,0.414-0.278l0.274-0.209
		l0.293-0.258l0.393-0.366l1.012-0.985l0.37,0.321c-1.103,1.373-1.986,2.304-2.656,2.797c-0.665,0.482-1.303,0.73-1.905,0.73
		c-0.396,0-0.696-0.134-0.903-0.404c-0.213-0.266-0.316-0.602-0.316-0.998c0-0.374,0.066-0.906,0.204-1.596
		c0.143-0.694,0.276-1.278,0.411-1.753c-0.185,0.314-0.494,0.76-0.931,1.357c-0.439,0.587-0.974,1.168-1.616,1.726
		c-0.749,0.663-1.469,1.142-2.156,1.421c-0.539,0.187-1.055,0.281-1.546,0.281c-0.835,0-1.589-0.348-2.271-1.032
		c-0.676-0.688-1.019-1.658-1.019-2.919c0-2.165,0.982-4.427,2.938-6.774c2.026-2.447,4.119-3.669,6.287-3.669
		C143.346,214.033,143.983,214.244,144.43,214.666z M143.926,215.254c-0.34-0.352-0.757-0.525-1.247-0.525
		c-1.703,0-3.276,1.289-4.735,3.868c-1.279,2.271-1.919,4.226-1.919,5.867c0,0.826,0.176,1.427,0.529,1.802
		c0.355,0.376,0.796,0.564,1.32,0.564c1.549,0,3.048-1.255,4.489-3.756c1.385-2.279,2.081-4.342,2.081-6.18
		C144.444,216.148,144.272,215.609,143.926,215.254z"/>
	<path fill="#FFFFFF" d="M149.226,228.053l2.644-9.556c0.23-0.807,0.359-1.292,0.396-1.465c0.031-0.169,0.055-0.355,0.055-0.555
		c0-0.296-0.085-0.534-0.259-0.707c-0.166-0.168-0.501-0.255-0.996-0.255l-0.366,0.027l-0.39,0.055v-0.515
		c0.666-0.1,1.136-0.181,1.422-0.231c0.28-0.049,0.581-0.11,0.914-0.186l2.745-0.604l0.126,0.142l-2.051,6.646
		c1.271-1.933,2.321-3.359,3.175-4.298c1.495-1.658,2.83-2.491,4.02-2.491c0.45,0,0.85,0.086,1.176,0.269
		c0.634,0.335,0.951,0.949,0.951,1.837c0,0.248-0.024,0.502-0.077,0.771c-0.054,0.266-0.12,0.557-0.202,0.87l-2.033,7.4
		c-0.044,0.155-0.089,0.341-0.141,0.564c-0.049,0.217-0.076,0.382-0.076,0.472l0.107,0.418c0.074,0.123,0.188,0.186,0.349,0.186
		c0.255,0,0.551-0.162,0.887-0.474c0.337-0.314,0.884-0.987,1.646-2.017l0.451,0.403c-0.831,1.143-1.484,1.946-1.973,2.41
		c-0.83,0.812-1.623,1.223-2.379,1.223c-0.346,0-0.674-0.116-0.994-0.346c-0.323-0.236-0.483-0.653-0.483-1.261
		c0-0.179,0.017-0.36,0.044-0.56c0.023-0.199,0.057-0.366,0.097-0.508l1.972-7.513c0.107-0.411,0.174-0.753,0.211-1.013
		c0.038-0.26,0.055-0.448,0.055-0.559c0-0.256-0.061-0.466-0.183-0.647c-0.113-0.179-0.326-0.275-0.628-0.275
		c-0.786,0-1.771,0.703-2.958,2.108c-0.705,0.832-1.412,1.825-2.129,2.975c-0.546,0.9-0.965,1.77-1.275,2.619
		c-0.312,0.851-0.803,2.398-1.478,4.638H149.226z"/>
	<path fill="#FFFFFF" d="M178.207,215.417c0.713,0.925,1.069,2.011,1.069,3.274c0,2.178-0.966,4.321-2.889,6.425
		c-1.994,2.185-4.114,3.278-6.369,3.278c-1.424,0-2.559-0.415-3.413-1.235c-0.859-0.827-1.288-1.985-1.288-3.478
		c0-2.258,0.958-4.415,2.874-6.476c1.959-2.118,4.078-3.172,6.357-3.172C176.275,214.033,177.501,214.49,178.207,215.417z
		 M168.631,226.857c0.43,0.566,1.059,0.838,1.885,0.838c1.674,0,3.165-1.263,4.466-3.803c1.099-2.171,1.649-4.173,1.649-5.991
		c0-0.778-0.094-1.398-0.276-1.87c-0.361-0.9-1.02-1.345-1.979-1.345c-1.579,0-3.052,1.178-4.438,3.532
		c-1.3,2.21-1.945,4.378-1.945,6.515C167.992,225.582,168.208,226.29,168.631,226.857z"/>
	<path fill="#FFFFFF" d="M187.493,214.038l0.066,0.136l-3.119,11.036c-0.144,0.59-0.219,0.938-0.219,1.049l0.095,0.405
		c0.051,0.123,0.178,0.186,0.387,0.186c0.35,0,0.816-0.306,1.387-0.914c0.343-0.361,0.762-0.876,1.252-1.549l0.404,0.346
		l-0.157,0.217c-0.77,1.079-1.409,1.857-1.913,2.329c-0.793,0.744-1.569,1.116-2.322,1.116c-0.44,0-0.81-0.184-1.106-0.558
		c-0.288-0.371-0.44-0.807-0.44-1.31c0-0.305,0.02-0.565,0.063-0.785c0.045-0.222,0.119-0.552,0.232-0.98l2.202-7.95l0.074-0.341
		l0.03-0.303c0-0.373-0.133-0.602-0.406-0.688c-0.273-0.09-0.806-0.134-1.613-0.134v-0.507c0.85-0.106,1.461-0.186,1.834-0.244
		c0.373-0.056,0.749-0.118,1.126-0.174c0.495-0.085,0.955-0.178,1.395-0.278C187.189,214.038,187.435,214.007,187.493,214.038z
		 M186.034,210.171c-0.299-0.331-0.448-0.728-0.448-1.189c0-0.478,0.148-0.881,0.448-1.21c0.299-0.33,0.655-0.49,1.082-0.49
		c0.419,0,0.786,0.16,1.089,0.49c0.304,0.329,0.457,0.733,0.457,1.21c0,0.466-0.153,0.869-0.457,1.193
		c-0.303,0.323-0.669,0.489-1.089,0.489C186.689,210.664,186.333,210.499,186.034,210.171z"/>
	<path fill="#FFFFFF" d="M195.758,214.068l0.057,0.199l-0.03,0.234l-1.572,6.024l0.359-0.712c0.739-1.454,1.609-2.774,2.6-3.974
		c0.999-1.207,1.939-1.807,2.832-1.807c0.489,0,0.858,0.159,1.122,0.475c0.267,0.324,0.393,0.691,0.393,1.101
		c0,0.464-0.126,0.845-0.39,1.148c-0.268,0.311-0.627,0.46-1.09,0.46c-0.317,0-0.559-0.062-0.723-0.185
		c-0.169-0.124-0.29-0.268-0.383-0.434l-0.189-0.336l-0.148-0.15l-0.208-0.057c-0.403,0-0.98,0.566-1.74,1.691
		c-0.759,1.116-1.435,2.333-2.032,3.644c-0.367,0.796-0.763,1.846-1.213,3.157c-0.276,0.827-0.652,1.993-1.119,3.506h-2.372
		l2.58-9.302c0.143-0.54,0.256-1.017,0.343-1.442c0.092-0.421,0.139-0.77,0.139-1.035c0-0.311-0.082-0.54-0.236-0.708
		c-0.15-0.169-0.424-0.251-0.806-0.251c-0.121,0-0.279,0.014-0.464,0.032c-0.186,0.018-0.403,0.044-0.662,0.077v-0.511l0.618-0.124
		c0.807-0.171,1.684-0.344,2.637-0.522c0.952-0.186,1.456-0.278,1.505-0.278L195.758,214.068z"/>
</g>
</svg>
